<svg width="101" height="100" viewBox="0 0 101 100" fill="none" xmlns="http://www.w3.org/2000/svg">
<path d="M48.9821 0.0625508L29.4372 0.132048L28.8684 0.451737C28.1907 0.840923 27.5009 1.67489 27.1741 2.52276C26.9442 3.12044 26.9321 3.57912 26.92 19.7025L26.8958 36.2708H28.4085H29.9213L29.9818 20.1195C30.0181 9.62541 30.0907 3.92661 30.1633 3.84322C30.2359 3.75982 38.3686 3.67642 51.3057 3.64862L72.3271 3.59302L72.2666 6.51192C72.0971 16.1165 72.1092 18.2987 72.2908 18.813C72.5328 19.4941 73.0169 20.0361 73.7188 20.4531C74.2997 20.7867 74.3239 20.8006 79.1648 20.9118C81.8272 20.9813 84.5986 21.0369 85.3247 21.0508H86.6197V22.0655V23.094L87.6846 23.2747C88.2655 23.372 88.9433 23.4971 89.1974 23.5527L89.6573 23.6639L89.621 20.4253L89.5847 17.1867L88.9312 16.3806C88.5681 15.9219 87.612 14.7682 86.8133 13.8092C86.0024 12.8501 83.2069 9.48641 80.5807 6.34513C76.9864 2.03628 75.6794 0.549033 75.2558 0.312742C74.6023 -0.0625447 77.3857 -0.0347457 48.9821 0.0625508ZM79.1769 10.376C81.1132 12.6972 83.1706 15.1713 83.7757 15.8941L84.8648 17.2006L84.0177 17.1033C83.5578 17.0616 81.7062 17.006 79.903 16.9921C78.1119 16.9782 76.3692 16.9504 76.0545 16.9087L75.4736 16.8531L75.4978 11.5157C75.5099 8.58295 75.5583 6.17833 75.5946 6.17833C75.643 6.17833 77.2526 8.06866 79.1769 10.376Z" fill="white"/>
<path d="M56.1708 10.1258C55.1784 10.6262 43.6814 19.2022 42.9674 19.9806C42.326 20.6756 42.4712 21.6902 43.2941 22.4964L43.6814 22.8578H56.4854H69.2895L69.6767 22.4964C70.4149 21.7736 70.6086 20.8285 70.1366 20.1474C69.9067 19.8138 60.9148 12.864 58.1192 10.8764C56.8243 9.94515 56.6549 9.88955 56.1708 10.1258ZM57.1026 14.1567C57.7198 14.4625 63.9766 19.2161 63.9887 19.3829C63.9887 19.4246 60.5154 19.4663 56.2676 19.4941C48.6433 19.5219 48.5585 19.5219 48.8006 19.2578C49.0547 18.9798 52.6733 16.1304 54.5128 14.7683C55.4083 14.1011 55.6625 13.976 56.1345 13.9621C56.4491 13.9621 56.8848 14.0455 57.1026 14.1567Z" fill="white"/>
<path d="M46.0534 29.5295L46.1139 34.8113H45.7266C44.3591 34.8113 43.7903 36.5905 44.8432 37.5912L45.291 38.0082H56.1587C68.0913 38.0082 67.5346 38.0499 68.1155 37.1881C68.3213 36.9102 68.3576 36.6878 68.3092 36.2013C68.2366 35.4924 67.8251 35.0059 67.1716 34.8669L66.7722 34.7835V29.5156V24.2477H65.09C63.432 24.2477 63.3957 24.2477 63.3594 24.5535C63.3352 24.7342 63.3715 27.0137 63.432 29.6407C63.4804 32.2538 63.4925 34.4916 63.4562 34.6028C63.4078 34.7835 62.9721 34.8113 60.7212 34.8113H58.0587V29.5295V24.2338L56.4612 24.2755L54.8516 24.3172L54.779 27.7921C54.7427 29.6963 54.6943 32.0592 54.6822 33.0461L54.6701 34.8113L52.0439 34.7835L49.4057 34.7418L49.3815 34.1859C49.3694 33.8801 49.3573 31.5311 49.3573 28.9457L49.3452 24.2755L47.663 24.2616L45.9929 24.2338L46.0534 29.5295Z" fill="white"/>
<path d="M85.1069 26.152C82.3839 26.43 79.5642 27.6392 77.5189 29.3906C73.9004 32.5041 71.6373 38.1612 71.8914 43.4291C72.1819 49.2391 74.7112 54.0344 79.0317 56.9394C81.3311 58.4683 84.1509 59.2606 86.777 59.0938C92.8644 58.6907 97.9352 54.0066 99.5689 47.2792C99.9078 45.9032 100.21 42.8731 100.114 41.7611C99.5326 34.589 95.7689 28.9736 90.1293 26.9165C88.5923 26.3605 86.3655 26.013 85.1069 26.152ZM86.9585 31.823C87.4789 32.0871 87.9025 32.518 88.1445 33.0184C88.314 33.4214 88.2898 34.2971 87.9025 41.8167L87.7452 45.0136L87.2974 45.4723C86.9222 45.8754 86.7891 45.931 86.2082 45.931C85.3611 45.931 85.0222 45.7781 84.6954 45.2499C84.4534 44.8607 84.405 44.4159 84.1388 40.0654C83.7515 33.9357 83.7515 33.3241 84.1145 32.7126C84.6591 31.7535 85.9662 31.3504 86.9585 31.823ZM87.1643 48.836C88.9917 49.809 88.9675 52.3109 87.1401 53.2977C85.6999 54.0761 84.0056 53.0614 83.7636 51.2684C83.6426 50.2815 84.2961 49.1557 85.2521 48.7804C85.8936 48.5163 86.5955 48.5302 87.1643 48.836Z" fill="white"/>
<path d="M5.32982 39.1897C4.19223 39.7457 3.84126 40.8298 3.90178 43.429C3.92598 44.3881 3.98649 56.6475 4.0228 70.6859L4.10751 96.2193L2.60685 96.261C1.28772 96.3166 1.06988 96.3583 0.731024 96.6363C-0.0798174 97.3035 -0.0677153 98.7351 0.76733 99.5691L1.1909 100L21.4498 99.9722L41.6967 99.9305L42.0234 99.583C42.8948 98.6656 42.8221 97.2757 41.8782 96.5668C41.624 96.3722 41.2247 96.3027 40.0629 96.261C39.0584 96.2332 38.5743 96.1637 38.5622 96.0525C38.5622 95.9691 38.538 95.6217 38.5138 95.2742C38.4896 94.9267 38.4291 82.5144 38.3928 67.6976C38.3081 38.5642 38.3565 40.385 37.6909 39.6762C37.0252 38.9534 37.7514 38.9812 21.1594 38.9812C8.18592 38.9951 5.65658 39.0229 5.32982 39.1897ZM14.83 48.1827C15.0357 48.4189 15.0357 53.8676 14.83 54.1038C14.7332 54.215 14.0554 54.2706 12.5911 54.2706C10.679 54.2706 10.4974 54.2428 10.3885 54.0065C10.2191 53.673 10.3522 48.4328 10.5216 48.1966C10.6911 47.9464 14.6242 47.9464 14.83 48.1827ZM23.7008 48.2522C23.8339 48.4328 23.8581 49.0444 23.8218 51.1988C23.7976 52.7695 23.7371 53.9926 23.6645 54.0899C23.5677 54.2289 22.9626 54.2706 21.3772 54.2706C19.7918 54.2706 19.1988 54.2289 19.1262 54.0899C19.0778 54.0065 19.0052 52.6444 18.9931 51.0877C18.9568 48.822 18.981 48.2383 19.102 48.141C19.1988 48.0715 20.2275 48.0159 21.4014 48.0159C23.2409 48.0159 23.5556 48.0437 23.7008 48.2522ZM32.1239 48.3217C32.3901 48.6135 32.4022 48.683 32.4022 51.2822C32.4022 53.1587 32.3538 53.9926 32.257 54.1038C32.0513 54.3401 28.0334 54.3401 27.8276 54.1038C27.6703 53.9231 27.6098 48.28 27.7671 48.1132C27.8034 48.0576 28.7474 48.0159 29.8487 48.0159C31.7245 48.0159 31.8576 48.0298 32.1239 48.3217ZM14.951 63.2497C14.9752 65.7238 14.9631 66.0296 14.7695 66.1825C14.4911 66.4327 10.4853 66.4327 10.2796 66.1964C10.0617 65.9462 10.0738 60.6088 10.2917 60.4003C10.5216 60.1918 14.358 60.1223 14.6726 60.3308C14.9026 60.4837 14.9147 60.6505 14.951 63.2497ZM23.725 60.5393C23.9066 60.7895 23.9308 61.1509 23.9308 63.2219C23.9308 64.876 23.8824 65.7099 23.7734 65.9462L23.6161 66.2937L21.583 66.2659C19.9129 66.252 19.5014 66.1964 19.3441 66.0296C19.1988 65.8489 19.1504 65.3207 19.1141 63.1802C19.0657 60.6366 19.0657 60.5532 19.3199 60.3586C19.5256 60.1918 19.9492 60.164 21.5466 60.1918C23.3741 60.2335 23.5193 60.2613 23.725 60.5393ZM31.3494 60.3725C31.8697 60.4142 32.3296 60.5393 32.378 60.6227C32.4264 60.7061 32.4627 61.9432 32.4627 63.3748C32.4627 65.7794 32.4506 65.9879 32.2328 66.1686C32.0513 66.3215 31.5551 66.3632 30.1149 66.3632C29.0742 66.3632 28.1665 66.3076 28.0939 66.252C27.755 66.0018 27.6824 65.4736 27.6824 63.2636C27.6824 61.1648 27.7066 60.9563 27.9366 60.6088C28.1786 60.2613 28.2391 60.2474 29.292 60.2613C29.9092 60.2613 30.829 60.3169 31.3494 60.3725ZM14.7574 72.5763C14.951 72.7709 14.9752 73.0628 14.9752 75.3979C14.9752 77.6218 14.951 78.0249 14.7816 78.1917C14.4911 78.4697 10.7758 78.5114 10.4127 78.2334C10.1344 78.0388 10.1344 77.9832 10.1344 75.3284C10.1344 72.9099 10.1586 72.618 10.3522 72.4929C10.4611 72.4095 11.4172 72.34 12.5427 72.34C14.2249 72.34 14.5637 72.3817 14.7574 72.5763ZM23.7492 72.6736C24.0639 73.2157 23.9671 77.8998 23.6403 78.2751C23.604 78.3307 22.66 78.3724 21.5587 78.3724C20.0823 78.3863 19.4772 78.3446 19.3199 78.2056C19.1141 78.0388 19.0899 77.8025 19.0899 75.3701C19.0899 73.0072 19.1141 72.7014 19.3078 72.5346C19.453 72.3956 20.046 72.3539 21.5345 72.34C23.5314 72.34 23.5677 72.34 23.7492 72.6736ZM32.257 72.7292C32.3417 72.8543 32.4022 73.3686 32.4022 73.994C32.4022 74.5778 32.4385 75.6481 32.4748 76.3986C32.5596 77.6774 32.5475 77.7469 32.2691 78.0666C31.9908 78.3724 31.9181 78.3863 29.9818 78.3863C28.8805 78.3863 27.9124 78.3307 27.8397 78.2751C27.7187 78.1917 27.6824 77.4689 27.6824 75.4674C27.6824 72.0481 27.4888 72.2844 30.1633 72.4095C31.7366 72.4929 32.1239 72.5485 32.257 72.7292ZM24.5238 86.7121C24.8747 87.0735 24.9231 88.102 24.8263 92.3692L24.7416 96.2471H21.3167H17.8797V91.6186C17.8797 89.0889 17.9281 86.9206 17.9886 86.8233C18.1581 86.5036 18.6905 86.448 21.5103 86.4619C23.9429 86.4758 24.3301 86.5036 24.5238 86.7121Z" fill="white"/>
<path d="M42.5922 39.69C41.7572 39.968 41.4304 41.4831 42.0234 42.2892C42.1807 42.5116 42.4712 42.7757 42.6527 42.8591C42.9069 42.9703 46.4891 43.012 56.0619 42.9842L69.1321 42.9425L69.2168 41.6221C69.2653 40.8993 69.3258 40.1348 69.3621 39.9124L69.4347 39.5371L56.2071 39.551C48.2802 39.551 42.8343 39.6205 42.5922 39.69Z" fill="white"/>
<path d="M43.2941 53.5478C42.2534 54.0343 42.1686 55.8134 43.161 56.6196L43.5241 56.9115L56.909 56.8837L70.306 56.842L70.6449 56.3972C71.3226 55.5354 71.2137 54.3679 70.4028 53.6868C70.1124 53.4505 69.5073 53.4366 56.8848 53.3949C46.477 53.381 43.5967 53.4088 43.2941 53.5478Z" fill="white"/>
<path d="M89.0643 61.7763C88.8465 61.8319 88.1445 61.9292 87.5152 61.9848L86.3776 62.0821V76.3847V90.6873H63.7467H41.1157V92.4942V94.3011L63.9645 94.2733L86.8012 94.2316L87.4063 93.8981C88.2534 93.4116 88.8465 92.7444 89.149 91.9382C89.4152 91.2433 89.4152 91.2016 89.4758 76.5515C89.5121 68.462 89.5726 61.8041 89.5968 61.7485C89.6694 61.6234 89.621 61.6234 89.0643 61.7763Z" fill="white"/>
<path d="M43.2094 63.6528C42.1686 64.1671 42.2291 66.1548 43.2941 66.808C43.6935 67.0443 44.468 67.0582 61.0237 67.0582C77.9788 67.0582 78.3418 67.0582 78.717 66.7802C79.6246 66.1548 79.7336 64.7231 78.9469 63.903L78.5112 63.4444H61.06C46.4528 63.4583 43.5362 63.4861 43.2094 63.6528Z" fill="white"/>
<path d="M43.3546 73.4519C43.2215 73.5075 42.9795 73.7299 42.81 73.9384C42.4107 74.4388 42.3865 75.5925 42.7616 76.1901C43.2578 76.9546 43.0279 76.9268 50.8579 76.899C54.8516 76.8851 59.4625 76.8295 61.1084 76.7878C63.8919 76.7183 64.1219 76.7044 64.4365 76.4264C65.1989 75.7731 65.2473 74.5917 64.5212 73.7577L64.134 73.3129L53.8714 73.3268C48.2197 73.3268 43.4878 73.3824 43.3546 73.4519Z" fill="white"/>
</svg>
